{"title":"Offender 2012 DVDRip x264 SFS-RG","uid":7849240,"size":1288722188,"categoryP":"video","categoryS":"movies","magnet":"?xt=urn:btih:72a351eb87facdf98030655a4a010d9000c1a58c&amp;dn=Offender+2012+DVDRip+x264+SFS-RG&amp;tr=udp%3A%2F%2Ftracker.openbittorrent.com%3A80&amp;tr=udp%3A%2F%2Fopen.demonii.com%3A1337&amp;tr=udp%3A%2F%2Ftracker.coppersurfer.tk%3A6969&amp;tr=udp%3A%2F%2Fexodus.desync.com%3A6969","seeders":0,"leechers":1,"uploader":"tykoon123","files":-1,"time":1353555564,"description":"Poster: &lt;a href=&quot;\nhttp://imgr.us/images/ktqtftw4zvsb5i5b0vb0.jpg&quot; rel=&quot;nofollow&quot; target=&quot;_NEW&quot;&gt;\nhttp://imgr.us/images/ktqtftw4zvsb5i5b0vb0.jpg&lt;/a&gt;\n\nInfo:\n\nIMDB: www.imdb.com/title/tt1821427/\n\nPlot:\nJustice needs to be served at Britain's most notorious young offenders institute.\n\nInfo:\nFormat : Matroska\nFormat version : Version 2\nFile size : 1.20 GiB\nDuration : 1h 37mn\nOverall bit rate : 1 760 Kbps\nEncoded date : UTC 2012-11-21 20:41:22\nWriting application : mkvmerge v5.6.0 ('Kenya Kane') built on May 27 2012 16:44:04\nWriting library : libebml v1.2.3 + libmatroska v1.3.0\n\nVideo\nID : 1\nFormat : AVC\nFormat/Info : Advanced Video Codec\nFormat profile : &lt;a class=&quot;__cf_email__&quot; href=&quot;/cdn-cgi/l/email-protection&quot; data-cfemail=&quot;b8fad9cbddd4d1d6ddf8f48d9689&quot;&gt;[email&amp;#160;protected]&lt;/a&gt;&lt;script cf-hash='f9e31' type=&quot;text/javascript&quot;&gt;\n/* &lt;![CDATA[ */!function(){try{var t=&quot;currentScript&quot;in document?document.currentScript:function(){for(var t=document.getElementsByTagName(&quot;script&quot;),e=t.length;e--;)if(t[e].getAttribute(&quot;cf-hash&quot;))return t[e]}();if(t&amp;&amp;t.previousSibling){var e,r,n,i,c=t.previousSibling,a=c.getAttribute(&quot;data-cfemail&quot;);if(a){for(e=&quot;&quot;,r=parseInt(a.substr(0,2),16),n=2;a.length-n;n+=2)i=parseInt(a.substr(n,2),16)^r,e+=String.fromCharCode(i);e=document.createTextNode(e),c.parentNode.replaceChild(e,c)}}}catch(u){}}();/* ]]&gt; */&lt;/script&gt;\nFormat settings, CABAC : No\nFormat settings, ReFrames : 1 frame\nCodec ID : V_MPEG4/ISO/AVC\nDuration : 1h 37mn\nBit rate : 1 438 Kbps\nWidth : 720 pixels\nHeight : 384 pixels\nDisplay aspect ratio : 1.85:1\nFrame rate : 25.000 fps\nColor space : YUV\nChroma subsampling : 4:2:0\nBit depth : 8 bits\nScan type : Progressive\nBits/(Pixel*Frame) : 0.208\nStream size : 981 MiB (80%)\nWriting library : x264 core 125 r2200 999b753\nDefault : Yes\nForced : No\n\nAudio\nID : 2\nFormat : AC-3\nFormat/Info : Audio Coding 3\nMode extension : CM (complete main)\nFormat settings, Endianness : Big\nCodec ID : A_AC3\nDuration : 1h 37mn\nBit rate mode : Constant\nBit rate : 320 Kbps\nChannel(s) : 6 channels\nChannel positions : Front: L C R, Side: L R, LFE\nSampling rate : 48.0 KHz\nBit depth : 16 bits\nCompression mode : Lossy\nStream size : 223 MiB (18%)\nDefault : Yes\nForced : No\n\n\n\nScreens:\n &lt;a href=&quot;\nhttp://imgr.us/images/4u8lr33mhe07njwkgit.jpeg&quot; rel=&quot;nofollow&quot; target=&quot;_NEW&quot;&gt;\nhttp://imgr.us/images/4u8lr33mhe07njwkgit.jpeg&lt;/a&gt;","torrent":{"xt":"urn:btih:72a351eb87facdf98030655a4a010d9000c1a58c","amp;dn":"Offender+2012+DVDRip+x264+SFS-RG","amp;tr":["udp%3A%2F%2Ftracker.openbittorrent.com%3A80","udp%3A%2F%2Fopen.demonii.com%3A1337","udp%3A%2F%2Ftracker.coppersurfer.tk%3A6969","udp%3A%2F%2Fexodus.desync.com%3A6969"],"infoHash":"72a351eb87facdf98030655a4a010d9000c1a58c","infoHashBuffer":{"type":"Buffer","data":[114,163,81,235,135,250,205,249,128,48,101,90,74,1,13,144,0,193,165,140]},"announce":[],"urlList":[]}}